<?xml version="1.0" encoding="utf-8"?>
<!-- Generator: Adobe Illustrator 23.0.1, SVG Export Plug-In . SVG Version: 6.00 Build 0)  -->
<svg version="1.1" id="Calque_1" xmlns="http://www.w3.org/2000/svg" xmlns:xlink="http://www.w3.org/1999/xlink" x="0px" y="0px"
	 width="500px" height="500px" viewBox="0 0 500 500" style="enable-background:new 0 0 500 500;" xml:space="preserve">
<g>
	<rect x="456.5" y="294.2" transform="matrix(0.7071 -0.7071 0.7071 0.7071 -80.3244 422.8191)" width="27.5" height="28.3"/>
	<path d="M64.5,173.3H10v85.9h32v-55.9h22.6c12.3,0,22.8,4.5,31,13.5c8.3,9,12.4,20,12.4,33c0,12.9-4.3,24-12.7,33
		c-8.5,9-18.8,13.5-30.7,13.5h-19v29.9h19c21.3,0,39.2-7.5,53.7-22.2c14.4-14.7,21.7-33,21.7-54.2s-7.3-39.5-21.7-54.2
		C103.8,180.7,85.7,173.3,64.5,173.3z"/>
	<polygon points="370.6,225.6 417.1,286.3 417.4,286.6 458.9,233.2 464.9,225.1 464.9,225.3 468.7,220.4 468.7,173.2 417.7,239.4 
		367.3,173.4 367.3,173.3 338.2,173.3 338.2,326.1 370.6,326.1 	"/>
	<path d="M275.4,243c6.9-7.6,11.4-17.8,11.4-29.8c0-26.5-21.9-41.4-48.3-41.4h-32v28H235c9.7,0,17.8,4.6,17.8,15.8
		c0,11.4-8.4,15.5-19,15.5h-15.5h-3.6h-36.1v96.3h62.5c31.3,0,58.4-12,58.4-45.8C299.5,263.1,291.4,248.9,275.4,243z M243.9,299
		h-29.2v-38.1h29.2c10.7,0,18.3,8.4,18.3,18.5C262.2,290,254,299,243.9,299z"/>
</g>
</svg>
